<?xml version="1.0" encoding="utf-8"?>
<!-- Generator: Adobe Illustrator 23.0.2, SVG Export Plug-In . SVG Version: 6.00 Build 0)  -->
<svg height="36" width="263.41463414634" version="1.1" id="Layer_1" xmlns="http://www.w3.org/2000/svg" xmlns:xlink="http://www.w3.org/1999/xlink" x="0px" y="0px"
	 viewBox="0 0 505.73 69.88" style="enable-background:new 0 0 505.73 69.88;" xml:space="preserve">
<style type="text/css">
	.st0{fill:#2B2011;}
	.st1{fill:#BA6624;}
</style>
<g>
	<g>
		<path class="st0" d="M163.69,49.63h-17.67V12.84h17.47c6.88,0,10.53,4.2,10.53,9.41c0,3.89-1.56,6.62-4.8,8.36
			c3.96,1.1,7.04,3.57,7.04,8.72C176.25,45.64,170.89,49.63,163.69,49.63z M161.45,27.5c2.35,0,3.65-1.52,3.65-3.94
			c0-2.26-1.41-3.63-3.75-3.63h-6.57v7.57H161.45z M163.22,34.55h-8.45v7.99h8.6c2.55,0,4.01-1.68,4.01-4.05
			C167.39,36.02,165.83,34.55,163.22,34.55z"/>
		<path class="st0" d="M183.6,10.48c2.92,0,4.85,1.79,4.85,4.57c0,2.79-1.93,4.57-4.85,4.57s-4.85-1.79-4.85-4.57
			C178.75,12.26,180.68,10.48,183.6,10.48z M179.22,49.63V22.09h8.76v27.54H179.22z"/>
		<path class="st0" d="M218,48.79c0,5.99-5.58,10.62-13.66,10.62c-6.67,0-12.3-3.31-13.24-8.83h8.5c0.68,1.52,2.5,2.26,4.74,2.26
			c3.08,0,4.9-1.79,4.9-4.31v-3.26c-1.3,1.58-4.12,3-7.14,3c-7.56,0-11.26-5.57-11.26-11.51v-3.78c0-6.1,3.75-11.51,11.31-11.51
			c3.75,0,6.67,2,7.51,3.52v-2.89H218V48.79z M204.34,28.61c-3.28,0-4.85,2.1-4.85,4.94v2.63c0,2.89,1.56,4.94,4.8,4.94
			c2.97,0,4.95-1.79,4.95-4.78v-2.94C209.24,30.24,206.95,28.61,204.34,28.61z"/>
		<path class="st0" d="M255.53,49.63l-13.66-21.5v21.5h-8.76V12.84h8.5l13.71,21.5v-21.5h8.76v36.79H255.53z"/>
		<path class="st0" d="M276.16,38.65v0.63c0,2.73,1.62,4.78,4.69,4.78c2.45,0,3.86-1.26,4.43-2.63H293
			c-0.94,5.1-5.94,8.83-12.15,8.83c-7.87,0-13.14-4.57-13.14-12.46v-3.42c0-7.67,4.64-12.93,12.93-12.93s12.51,5.57,12.51,12.14
			v5.05H276.16z M276.16,33.5h8.97v-1c0-2.73-1.36-4.78-4.43-4.78c-3.18,0-4.54,2.05-4.54,5.2V33.5z"/>
		<path class="st0" d="M312.39,30.55h-1.15c-4.07,0-6.26,1.68-6.26,6.46v12.61h-8.76V22.09h8.29v4.84c0.83-4.1,3.55-5.05,7.46-5.05
			h0.42V30.55z"/>
		<path class="st0" d="M341.21,49.63h-8.34v-2.89c-0.83,1.52-3.75,3.52-7.51,3.52c-7.72,0-11.57-5.89-11.57-12.14V33.6
			c0-6.25,3.86-12.14,11.57-12.14c3.28,0,5.89,1.52,7.09,2.94V11.26h8.76V49.63z M332.45,33.92c0-3.47-2.29-5.2-4.9-5.2
			c-3.44,0-5.01,2.1-5.01,5.36v3.57c0,3.15,1.56,5.36,5.01,5.36c2.61,0,4.9-1.73,4.9-5.2V33.92z"/>
		<path class="st0" d="M371.18,38.7h-5.89v10.93h-8.97V12.84h17.15c8.86,0,13.66,5.47,13.66,12.98c0,5.26-2.55,9.36-6.78,11.4
			l7.46,12.4h-10.43L371.18,38.7z M372.43,20.09h-7.14v11.46h7.14c3.75,0,5.74-2.26,5.74-5.62
			C378.16,22.41,376.18,20.09,372.43,20.09z"/>
		<path class="st0" d="M406.77,49.63v-2.31c-1.56,1.84-4.54,2.94-8.08,2.94c-6.26,0-10.01-3.63-10.01-8.67
			c0-5.68,4.22-8.57,10.58-8.57c3.28,0,5.79,0.95,7.14,2.05v-3.21c0-2.05-1.36-3.57-3.81-3.57c-1.82,0-3.23,0.63-3.96,2h-7.98
			c1.15-5.52,5.79-8.83,12.2-8.83c7.77,0,12.3,4.26,12.3,11.04v17.13H406.77z M406.41,41.43c0-1.84-1.98-3.21-4.69-3.21
			c-2.97,0-4.85,1.05-4.85,3.21c0,2.1,1.98,3.21,4.74,3.21C404.27,44.64,406.41,43.27,406.41,41.43z"/>
		<path class="st0" d="M418.95,49.63V22.09h8.39v3.21c1.41-2.52,4.12-3.84,7.61-3.84c6.26,0,9.59,4.05,9.59,10.41v17.76h-8.76v-16.4
			c0-2.52-1.3-4.1-3.96-4.1c-2.24,0-4.12,1.05-4.12,4.2v16.29H418.95z"/>
		<path class="st0" d="M447.24,37.65v-3.57c0-7.31,4.74-12.61,13.35-12.61c7.51,0,12.67,4.68,12.83,11.25h-7.92
			c-0.16-2.26-1.67-4.26-4.74-4.26c-3.23,0-4.74,2.05-4.74,5.1v4.63c0,3.05,1.51,5.1,4.74,5.1c3.08,0,4.59-2,4.74-4.26h7.92
			c-0.16,6.57-5.32,11.25-12.83,11.25C451.98,50.26,447.24,44.95,447.24,37.65z"/>
		<path class="st0" d="M476.08,49.63V11.26h8.76v13.77c1.25-2.1,4.07-3.57,7.25-3.57c6.26,0,9.59,4.05,9.59,10.41v17.76h-8.76v-16.4
			c0-2.52-1.3-4.1-3.96-4.1c-2.24,0-4.12,1.05-4.12,4.2v16.29H476.08z"/>
	</g>
	<g>
		<path class="st1" d="M106.24,20.88c-4.44-0.9-8.87-0.91-13.56-0.03l-0.53,0.1L89.35,11c-0.3-1.11-3.19-10.78-11.32-10.99
			c-4.5-0.12-7.61,1.7-9.89,3.03c-1.71,1-2.74,1.53-4.05,1.74c-0.63,0.1-1.44-0.03-2.43-0.47c-1.87-0.82-5.68-2.03-10.05-1.07
			c-4.1,0.89-8.81,3.94-14.73,24.4l-0.16,0.55l-0.55-0.14c-3.86-0.99-7.58-1.47-11.08-1.47c-6.18,0-11.69,1.52-16.06,4.5
			c-5.47,3.74-8.66,9.46-9,16.11c-0.27,5.44,1.84,10.96,5.8,15.15c4.61,4.87,11.25,7.56,18.7,7.56
			c11.13-0.04,22.34-9.13,34.21-18.76c14.8-12,30.09-24.41,45.72-21.26c6.79,1.37,13.66,6.86,12.7,15.67
			c-0.48,4.37-4.7,8.34-10.5,9.89c-3.29,0.87-14.69,2.77-23.48-9.52l-2.76-3.85c-2.32,1.47-4.78,3.17-7.49,5.2l2.87,4.01
			c9.67,13.52,23.48,15.59,33.17,13.02c9.56-2.54,16.32-9.51,17.22-17.75C127.7,32.64,117.3,23.11,106.24,20.88z M82.98,23.83
			c-10.7,4.55-20.48,12.48-29.94,20.15l0,0c-10.59,8.59-20.6,16.71-28.43,16.74c-0.01,0-0.02,0-0.04,0c-4.97,0-9.3-1.67-12.17-4.72
			c-2.24-2.37-3.45-5.42-3.3-8.36c0.19-3.77,1.93-6.88,5.02-8.99c4.66-3.19,11.65-3.82,19.67-1.77l0.57,0.15l-0.14,0.58
			c-0.91,3.68-1.83,7.69-2.75,11.91l-0.78,3.52c2.9-1.54,6.39-3.79,10.94-7.32c0.22-0.94,1.43-5.72,1.66-6.6
			c5.66-21.93,8.37-25.97,10.27-26.84c1.84-0.85,4.06,0.19,5.21,0.62c1.54,0.58,3.34,1.37,6.44,0.98c3.22-0.41,5.58-1.79,7.48-2.9
			l0.78-0.46c1.68-1.01,3-1.81,4.45-1.31c1.27,0.43,2.28,2.87,2.67,4.24l2.87,10.2L82.98,23.83z"/>
	</g>
</g>
</svg>
